<svg width="32" height="32" viewBox="0 0 32 32" fill="none" xmlns="http://www.w3.org/2000/svg">
<path d="M16.6667 9.66667C16.6667 9.40145 16.5613 9.1471 16.3738 8.95956C16.1863 8.77202 15.9319 8.66667 15.6667 8.66667C15.4015 8.66667 15.1471 8.77202 14.9596 8.95956C14.772 9.1471 14.6667 9.40145 14.6667 9.66667V17C14.6667 17.36 14.8587 17.6907 15.1707 17.868L19.8374 20.5347C20.0671 20.6588 20.3362 20.6882 20.5873 20.6165C20.8384 20.5448 21.0515 20.3778 21.1811 20.1511C21.3106 19.9244 21.3463 19.656 21.2806 19.4032C21.2149 19.1505 21.0529 18.9335 20.8294 18.7987L16.6667 16.42V9.66667Z" fill="#FF8AE2"/>
<path fill-rule="evenodd" clip-rule="evenodd" d="M16 1.33333C7.89998 1.33333 1.33331 7.9 1.33331 16C1.33331 24.1 7.89998 30.6667 16 30.6667C24.1 30.6667 30.6666 24.1 30.6666 16C30.6666 7.9 24.1 1.33333 16 1.33333ZM3.33331 16C3.33331 12.6406 4.66783 9.41877 7.04329 7.04331C9.41875 4.66785 12.6406 3.33333 16 3.33333C19.3594 3.33333 22.5812 4.66785 24.9567 7.04331C27.3321 9.41877 28.6666 12.6406 28.6666 16C28.6666 19.3594 27.3321 22.5812 24.9567 24.9567C22.5812 27.3321 19.3594 28.6667 16 28.6667C12.6406 28.6667 9.41875 27.3321 7.04329 24.9567C4.66783 22.5812 3.33331 19.3594 3.33331 16Z" fill="#FF8AE2"/>
</svg>