<svg width="32" height="32" viewBox="0 0 32 32" fill="none" xmlns="http://www.w3.org/2000/svg">
<path d="M12.048 10.6347C11.8585 10.458 11.6077 10.3619 11.3487 10.3665C11.0896 10.371 10.8424 10.476 10.6592 10.6592C10.476 10.8424 10.371 11.0896 10.3665 11.3487C10.3619 11.6077 10.458 11.8585 10.6347 12.048L14.5854 16L10.6347 19.9507C10.5364 20.0422 10.4576 20.1526 10.403 20.2753C10.3483 20.398 10.3189 20.5304 10.3166 20.6647C10.3142 20.7989 10.3389 20.9323 10.3892 21.0568C10.4395 21.1813 10.5143 21.2944 10.6093 21.3894C10.7043 21.4844 10.8174 21.5592 10.9419 21.6095C11.0664 21.6598 11.1998 21.6845 11.334 21.6821C11.4683 21.6798 11.6007 21.6504 11.7234 21.5957C11.8461 21.5411 11.9565 21.4623 12.048 21.364L16 17.4134L19.9507 21.3654C20.1392 21.5476 20.3918 21.6485 20.654 21.6464C20.9162 21.6442 21.167 21.5392 21.3525 21.3538C21.538 21.1685 21.6433 20.9177 21.6457 20.6556C21.6481 20.3934 21.5474 20.1407 21.3654 19.952L17.4147 16L21.3654 12.048C21.4636 11.9565 21.5424 11.8461 21.5971 11.7234C21.6517 11.6007 21.6811 11.4683 21.6835 11.334C21.6858 11.1998 21.6611 11.0664 21.6108 10.9419C21.5606 10.8174 21.4857 10.7043 21.3907 10.6093C21.2958 10.5143 21.1827 10.4395 21.0581 10.3892C20.9336 10.3389 20.8003 10.3142 20.666 10.3166C20.5317 10.3189 20.3993 10.3483 20.2766 10.403C20.154 10.4576 20.0436 10.5364 19.952 10.6347L16 14.5854L12.048 10.6347Z" fill="#EEEEEE"/>
<path fill-rule="evenodd" clip-rule="evenodd" d="M16 1.33337C7.90004 1.33337 1.33337 7.90004 1.33337 16C1.33337 24.1 7.90004 30.6667 16 30.6667C24.1 30.6667 30.6667 24.1 30.6667 16C30.6667 7.90004 24.1 1.33337 16 1.33337ZM3.33337 16C3.33337 12.6406 4.66789 9.41881 7.04335 7.04335C9.41881 4.66789 12.6406 3.33337 16 3.33337C19.3594 3.33337 22.5813 4.66789 24.9567 7.04335C27.3322 9.41881 28.6667 12.6406 28.6667 16C28.6667 19.3594 27.3322 22.5813 24.9567 24.9567C22.5813 27.3322 19.3594 28.6667 16 28.6667C12.6406 28.6667 9.41881 27.3322 7.04335 24.9567C4.66789 22.5813 3.33337 19.3594 3.33337 16Z" fill="#EEEEEE"/>
</svg>
