<svg width="100" height="101" viewBox="0 0 100 101" fill="none" xmlns="http://www.w3.org/2000/svg">
<g clip-path="url(#clip0)">
<path d="M46.0647 0.0256893C45.831 0.050285 45.0809 0.13637 44.4045 0.197859C34.7876 1.20628 25.3182 5.27687 17.5952 11.7455C16.1686 12.9261 12.922 16.1728 11.7414 17.5993C5.34649 25.2363 1.60794 33.8079 0.230585 43.9536C-0.0768616 46.2041 -0.0768616 53.8042 0.230585 56.0547C1.60794 66.2004 5.34649 74.772 11.7414 82.409C12.922 83.8355 16.1686 87.0822 17.5952 88.2628C25.2321 94.6577 33.8037 98.3962 43.9495 99.7736C46.2 100.081 53.8 100.081 56.0505 99.7736C66.1963 98.3962 74.7679 94.6577 82.4048 88.2628C83.8314 87.0822 87.078 83.8355 88.2586 82.409C94.6535 74.772 98.3921 66.2004 99.7694 56.0547C100.077 53.8042 100.077 46.2041 99.7694 43.9536C98.3921 33.8079 94.6535 25.2363 88.2586 17.5993C87.078 16.1728 83.8314 12.9261 82.4048 11.7455C74.7925 5.37525 66.1348 1.58752 56.1243 0.247051C55.0421 0.0994764 53.468 0.0379872 50.5534 0.0133915C48.3275 -0.0112042 46.2983 0.00109364 46.0647 0.0256893V0.0256893ZM46.6796 5.33836C46.6796 6.77721 46.778 9.90086 46.9132 12.8646C46.987 14.3158 47.0731 16.3941 47.11 17.4763C47.2453 21.3133 47.6511 31.3852 47.7126 32.283L47.7741 33.1807L47.2207 33.1192C46.9132 33.0946 46.6304 33.0208 46.5812 32.9839C46.5443 32.9347 46.4582 32.0862 46.409 31.0901C46.1877 26.712 45.4621 9.72869 45.3883 7.24453L45.3145 4.5144L45.6589 4.46521C45.8433 4.44062 46.1508 4.40372 46.3475 4.39143L46.6796 4.37913V5.33836ZM58.4486 5.04321C58.4609 5.05551 58.4978 8.76946 58.5347 13.2951C58.5839 17.833 58.6454 21.9036 58.6823 22.3463C58.7192 22.8013 58.7069 23.1948 58.6454 23.2194C58.5962 23.2563 58.2888 23.2563 57.9813 23.2194L57.4156 23.1702L57.3295 19.5916C57.2803 17.6116 57.2188 15.4226 57.1942 14.7093C57.0959 12.5326 57.0098 5.1416 57.0836 4.95713C57.1328 4.82185 57.268 4.80955 57.7845 4.89564C58.1412 4.96943 58.4363 5.03091 58.4486 5.04321V5.04321ZM30.0037 9.16299C30.0775 9.27367 30.6555 16.0498 31.3688 24.9165C31.6024 27.9295 31.8361 30.6842 31.873 31.0286C31.9345 31.6558 31.9222 31.6804 31.5286 31.9263C31.3073 32.0616 31.0859 32.1723 31.0367 32.1723C30.9998 32.1723 30.926 31.8525 30.8891 31.459C30.717 29.8603 30.0529 22.1372 29.5856 16.554C29.315 13.2705 29.0691 10.3313 29.0322 10.0115C28.9707 9.47044 28.983 9.42125 29.3027 9.24908C29.6962 9.04001 29.9176 9.00312 30.0037 9.16299V9.16299ZM63.8597 11.6349C64.204 11.7578 64.2409 11.8193 64.3147 12.5203C64.4377 13.7501 64.4008 19.6285 64.2655 19.6285C63.9089 19.6285 63.171 19.2103 63.1095 18.9767C63.0726 18.8291 63.0357 17.0828 63.0357 15.1029C63.0357 11.1061 62.9865 11.3397 63.8597 11.6349V11.6349ZM41.1455 12.2129C41.1455 12.5449 41.2316 14.3773 41.33 16.308C41.4284 18.2388 41.5391 20.6861 41.5883 21.7437C41.6744 23.8835 41.6989 23.8097 40.875 23.8589C40.4692 23.8712 40.4692 23.8712 40.4446 23.2563C40.42 22.912 40.3585 21.8421 40.2847 20.8582C40.2232 19.8744 40.0756 17.7469 39.9772 16.1236C39.8789 14.5003 39.7559 12.8892 39.719 12.5449C39.6452 11.93 39.6575 11.9054 39.9895 11.7824C40.1863 11.7086 40.5307 11.6472 40.752 11.6472C41.1455 11.6349 41.1455 11.6349 41.1455 12.2129V12.2129ZM75.2598 13.8977L75.6779 14.0698L75.764 15.7177C75.8009 16.6155 75.8255 18.5586 75.8009 20.022L75.764 22.7029L75.2475 22.4447L74.731 22.1987L74.6941 18.1158C74.6695 15.8653 74.6818 13.9592 74.7064 13.8731C74.7556 13.6886 74.7556 13.6886 75.2598 13.8977V13.8977ZM52.8039 15.5087C52.8777 15.5825 53.0499 21.5469 53.0622 24.5722L53.0745 26.3923L52.4965 26.3062C52.1644 26.2693 51.8939 26.2324 51.8816 26.2201C51.8447 26.1955 51.4757 17.0828 51.4757 16.1974V15.2873L52.1029 15.3611C52.4596 15.4103 52.767 15.4718 52.8039 15.5087V15.5087ZM81.1259 16.3818C81.2734 16.554 81.298 19.2472 81.3349 34.103C81.3718 51.1602 81.3718 51.6029 81.1505 51.6029C81.0152 51.6029 80.8307 51.5291 80.72 51.443C80.5356 51.3077 80.511 49.8197 80.4495 35.2467C80.4003 26.4169 80.3388 18.3987 80.3019 17.4271L80.2281 15.6563L80.5848 15.9145C80.7938 16.0621 81.0275 16.2712 81.1259 16.3818V16.3818ZM70.0947 18.9029C70.1562 18.9521 70.2177 19.6531 70.23 20.4524C70.2915 23.1702 70.3038 39.8338 70.2423 39.883C70.2177 39.9076 69.9963 39.8461 69.7504 39.7478L69.3076 39.5633V18.6446L69.652 18.7184C69.8364 18.7676 70.0332 18.8414 70.0947 18.9029V18.9029ZM36.1526 19.5916C36.1895 19.9236 36.251 20.6738 36.2879 21.2887C36.3248 21.8913 36.4109 23.2686 36.4847 24.3385C36.6322 26.503 36.6076 26.6382 35.9067 26.6382C35.5377 26.6382 35.4885 26.6013 35.4393 26.2324C35.3164 25.5068 34.8859 19.4563 34.9474 19.3579C35.0089 19.2718 35.6484 19.0505 35.9436 19.0259C36.0173 19.0136 36.1157 19.2718 36.1526 19.5916V19.5916ZM15.812 22.7275C15.9472 24.0311 16.2178 26.7612 16.4146 28.7904C16.6236 30.8195 16.7958 32.5412 16.7958 32.615C16.7958 32.7626 15.8489 33.2299 15.7505 33.1315C15.689 33.07 14.4592 22.1864 14.4592 21.6945C14.4592 21.3994 15.4061 20.1573 15.5291 20.2925C15.566 20.3171 15.689 21.4117 15.812 22.7275ZM64.0318 24.0188L64.3885 24.2279L64.4008 26.8842C64.4131 28.3353 64.4377 29.9587 64.4377 30.4875C64.4623 31.5943 64.327 31.7787 63.6629 31.5451L63.2817 31.4098V30.3522C63.2817 29.7619 63.2448 28.0525 63.1956 26.5399L63.1218 23.8097H63.4047C63.5522 23.8097 63.8351 23.9081 64.0318 24.0188V24.0188ZM21.2107 28.7904C21.4321 31.1516 21.7887 35.1361 22.0224 37.6448L22.4405 42.195L21.9609 42.6746L21.4936 43.1543L21.4075 42.1827C21.3583 41.6416 21.1123 39.1329 20.8541 36.5995C20.5958 34.0661 20.2269 30.3891 20.0424 28.4337L19.6981 24.8919L20.1777 24.4492C20.6081 24.0434 20.6573 24.0311 20.7434 24.2525C20.7926 24.3754 21.0017 26.4169 21.2107 28.7904ZM11.9996 30.2784C12.2702 32.7011 12.9835 39.1452 13.5984 44.5931C14.2132 50.0411 14.7912 55.2922 14.9019 56.2761C15.0003 57.2599 15.1725 58.7479 15.2709 59.5965C15.443 61.0353 15.443 61.1337 15.2463 61.2813C14.9511 61.5026 14.8281 61.4781 14.8281 61.2198C14.8281 61.1091 14.7175 60.1745 14.5822 59.1661C14.3608 57.4813 13.9919 54.6282 13.1679 48.221C12.9958 46.9297 12.6637 44.3594 12.4301 42.5025C12.1841 40.6455 11.8275 37.8785 11.6307 36.3535C11.4339 34.8286 11.1019 32.2215 10.8928 30.5367C10.6715 28.8642 10.5362 27.3761 10.5731 27.2162C10.6592 26.8842 11.3847 25.7282 11.4585 25.802C11.4831 25.8389 11.7291 27.8434 11.9996 30.2784ZM8.23649 35.5788C8.42096 37.0545 8.7653 39.7478 8.99895 41.5801C9.23261 43.4002 9.52776 45.6753 9.66304 46.6223L9.8967 48.344L9.63844 48.5653C9.49087 48.6883 9.34329 48.7375 9.2941 48.6883C9.24491 48.6391 9.14653 48.1472 9.07274 47.6061C8.99895 47.065 8.54393 43.9044 8.05202 40.5963L7.17887 34.5704L7.46172 33.7341C7.6093 33.2791 7.76917 32.9101 7.80606 32.9101C7.85525 32.9101 8.03972 34.1153 8.23649 35.5788V35.5788ZM75.7517 33.9678C75.9239 34.1399 75.9485 34.9024 75.9485 40.5471V46.9297H75.6041C74.854 46.9297 74.8663 47.1142 74.8171 40.129L74.7802 33.771H75.1737C75.3828 33.771 75.6533 33.8571 75.7517 33.9678V33.9678ZM48.8317 36.1691C51.611 36.5872 54.0337 37.362 56.4318 38.5918C57.9813 39.3911 58.7192 39.9445 60.4409 41.5924C62.9988 44.0397 64.573 46.1795 66.0487 49.2048C68.2008 53.6074 69.0371 57.5058 70.0947 67.959C70.5743 72.6445 71.2015 81.1423 71.3368 84.6226C71.3737 85.631 71.4598 87.2912 71.5335 88.312C71.6688 90.4764 71.8287 90.1812 69.9225 91.1036C67.2785 92.3826 64.7328 93.268 61.3755 94.092C57.268 95.1004 54.6117 95.4201 50.5534 95.4324L47.6019 95.4447L47.6265 94.0305C47.6265 93.2557 47.7003 91.4479 47.7741 90.0337C48.143 83.1838 48.0692 74.5384 47.5896 69.7422C47.3191 66.9875 46.7903 63.6425 46.4951 62.9046C46.4336 62.7447 46.7165 62.6095 47.934 62.1913C50.1599 61.4166 52.0906 60.445 52.3858 59.9654C52.9146 59.0554 51.9677 57.7518 50.7625 57.7518C50.5534 57.7518 49.9262 57.9732 49.3482 58.2314C46.5935 59.4981 41.0718 60.9861 37.8866 61.3182C35.6853 61.5518 32.2665 61.4166 29.893 60.9861C28.6017 60.7525 26.2897 59.8793 24.359 58.8832C22.1331 57.7272 20.768 56.19 20.3622 54.3699C20.1408 53.3861 20.2023 51.4184 20.4851 50.3116C20.7926 49.0941 21.6534 47.3232 22.4405 46.2902C25.9454 41.6785 33.1765 37.6817 40.5921 36.2798C42.9533 35.837 46.2983 35.7878 48.8317 36.1691ZM86.7706 36.5503C87.2133 36.7348 87.2625 36.784 87.2625 37.2021C87.2871 40.5594 87.2133 48.2333 87.1518 48.553C87.1395 48.6637 86.5 48.676 86.2295 48.5776C86.0573 48.5161 86.0327 47.852 86.0327 42.4287C86.0327 38.5426 86.0819 36.3535 86.1557 36.3535C86.2172 36.3535 86.5 36.4396 86.7706 36.5503V36.5503ZM92.1447 43.3018L92.5875 43.4863L92.5014 53.6689C92.403 66.6432 92.3907 67.0244 91.9234 68.1435C91.1609 69.9759 91.1978 70.3448 91.2716 62.302C91.2962 58.2806 91.3577 54.21 91.3823 53.2631C91.4069 52.3162 91.4315 49.6475 91.4438 47.3232C91.4438 44.5193 91.4807 43.1174 91.5667 43.1174C91.6405 43.1174 91.8988 43.2034 92.1447 43.3018ZM18.1855 46.364C18.2592 47.3601 18.2346 47.4585 17.878 48.2456L17.4845 49.0818L17.3369 47.852C17.1032 45.8844 17.1032 45.7983 17.5706 45.5031C17.7796 45.3556 18.001 45.2572 18.0379 45.2818C18.0748 45.3064 18.1486 45.7983 18.1855 46.364V46.364ZM10.5854 53.7796C10.6961 54.788 11.5569 61.4781 11.9996 64.7616C12.6637 69.8406 12.7129 70.5662 12.4178 70.2587C12.3809 70.2218 12.098 68.5124 11.8029 66.4587C9.8844 53.2016 9.8967 53.2877 10.0566 53.1893C10.3886 52.9679 10.4993 53.0909 10.5854 53.7796V53.7796ZM19.4398 59.412C19.5136 59.7195 19.8703 63.0522 19.8703 63.458C19.8703 63.8023 19.4275 64.1221 19.2308 63.9253C19.1693 63.8638 19.0094 62.8185 18.8864 61.6133C18.7512 60.3958 18.6159 59.1292 18.579 58.7971L18.5052 58.1822L18.9356 58.6741C19.1816 58.9447 19.4029 59.2767 19.4398 59.412V59.412ZM29.3642 64.0483C29.4995 64.1713 29.5856 64.6632 29.6962 65.9914C29.8807 68.3894 29.9053 68.205 29.4011 68.205C28.8846 68.205 28.8969 68.2419 28.7247 66.0775C28.5525 63.8761 28.5525 63.9007 28.8846 63.9007C29.0445 63.9007 29.2535 63.9745 29.3642 64.0483ZM39.1041 64.2328C39.1287 64.3558 39.1902 65.0936 39.2394 65.8684C39.2763 66.6432 39.387 68.3894 39.4853 69.7422C39.8297 74.7105 39.842 75.3377 39.6329 75.3377C39.3992 75.3377 39.3747 75.1533 39.1041 71.6484C39.0057 70.1972 38.8212 67.9098 38.6983 66.5694C38.5876 65.2289 38.5138 64.1098 38.5507 64.0852C38.686 63.9376 39.0426 64.0483 39.1041 64.2328ZM15.9841 66.594C16.0579 66.7046 16.5252 70.64 17.1032 76.0141C17.2754 77.6374 17.4476 79.1993 17.4845 79.4944L17.546 80.0232L17.2385 79.8264C17.0049 79.6666 16.9188 79.5067 16.9188 79.2238C16.9188 78.4491 16.39 73.3455 15.9841 70.2218C15.7505 68.4509 15.566 66.8891 15.566 66.7415C15.566 66.4833 15.8612 66.3849 15.9841 66.594V66.594ZM86.9551 71.7345L86.869 76.875L86.5615 77.33C85.8605 78.363 85.8974 78.5598 85.9343 72.8044L85.9589 67.5286L86.4139 67.0613C86.6599 66.8153 86.9059 66.6063 86.9551 66.6063C86.9919 66.6063 86.9919 68.9183 86.9551 71.7345V71.7345ZM75.5795 79.8879C75.641 87.033 75.6287 87.5864 75.432 87.8077C75.309 87.943 75.1983 88.0291 75.1614 87.9922C75.0753 87.8938 74.9523 72.3125 75.0507 72.2264C75.0999 72.1772 75.2229 72.1526 75.3336 72.1649C75.4935 72.2018 75.5303 73.0749 75.5795 79.8879V79.8879ZM35.4147 74.9934C35.5008 75.7559 35.8083 79.4083 35.9313 81.13C36.005 82.286 36.005 82.3229 35.7345 82.409C35.5869 82.4582 35.4147 82.4459 35.3656 82.3844C35.2795 82.2983 35.0089 79.5682 34.6769 75.3623L34.5908 74.3539H34.972C35.3287 74.3539 35.3533 74.3785 35.4147 74.9934V74.9934ZM25.7486 79.2976C25.8347 79.3837 25.8962 79.6912 25.8962 79.9986C25.8962 80.3184 26.0438 81.9786 26.2037 83.7003C26.671 88.4103 26.7079 89.0498 26.4988 88.9269C26.1791 88.7424 25.8962 88.4595 25.9577 88.3857C25.9823 88.3366 25.9331 87.7217 25.8347 87.0207C25.7486 86.3074 25.638 85.1514 25.5888 84.4381C25.5396 83.7249 25.4289 82.4213 25.3305 81.5481C25.0968 79.396 25.1091 79.1501 25.3797 79.1501C25.5027 79.1501 25.6625 79.2116 25.7486 79.2976V79.2976ZM31.5655 87.5741C31.6024 87.8446 31.6762 88.8531 31.7254 89.8123C31.8115 91.657 31.7746 91.7923 31.2704 91.411C31.1228 91.3003 31.0244 90.833 30.8768 89.4311C30.6186 86.8977 30.6063 86.9961 31.0859 87.0453C31.4425 87.0822 31.4917 87.1314 31.5655 87.5741Z" fill="#EEEEEE"/>
<path d="M27.1752 42.0598C25.8962 42.6132 25.7978 44.3472 27.003 44.962C27.8762 45.4048 28.7616 45.1957 29.2166 44.4332C30.0775 43.0313 28.6755 41.408 27.1752 42.0598ZM35.5131 43.2404C34.3325 43.9659 34.3325 45.7122 35.5131 46.4378C36.6814 47.1388 38.1941 46.2164 38.1941 44.8145C38.1941 43.4617 36.6445 42.5517 35.5131 43.2404Z" fill="#EEEEEE"/>
</g>
<defs>
<clipPath id="clip0">
<rect width="100" height="100.004" fill="white"/>
</clipPath>
</defs>
</svg>
