<?xml version="1.0" encoding="UTF-8" standalone="no"?><!DOCTYPE svg PUBLIC "-//W3C//DTD SVG 1.1//EN" "http://www.w3.org/Graphics/SVG/1.1/DTD/svg11.dtd"><svg width="100%" height="100%" viewBox="0 0 2365 1767" version="1.1" xmlns="http://www.w3.org/2000/svg" xmlns:xlink="http://www.w3.org/1999/xlink" xml:space="preserve" xmlns:serif="http://www.serif.com/" style="fill-rule:evenodd;clip-rule:evenodd;stroke-linejoin:round;stroke-miterlimit:2;"><rect id="Export" x="0" y="0" width="2364.58" height="1766.25" style="fill:none;"/><clipPath id="_clip1"><rect x="0" y="0" width="2364.58" height="1766.25"/></clipPath><g clip-path="url(#_clip1)"><g><g><ellipse cx="1182.29" cy="848.526" rx="604.958" ry="848.526" style="fill:#072540;"/><g><path d="M-0,1271.16c-0,273.36 408.988,495.294 912.747,495.294c503.76,0 912.748,-221.934 912.748,-495.294c-212.974,82.008 -548.645,148.589 -912.748,148.589c-364.102,-0 -699.773,-66.581 -912.747,-148.589Z" style="fill:url(#_Linear2);"/><path d="M539.088,1271.16c0,273.36 408.989,495.294 912.748,495.294c503.759,0 912.747,-221.934 912.747,-495.294c-212.974,82.008 -548.645,148.589 -912.747,148.589c-364.102,-0 -699.773,-66.581 -912.748,-148.589Z" style="fill:url(#_Linear3);"/><path d="M163.195,990.698c-39.145,270.542 333.847,548.756 832.414,620.895c498.568,72.139 935.122,-88.94 974.267,-359.483c-222.523,50.665 -564.268,68.49 -924.618,16.351c-360.35,-52.14 -683.027,-166.102 -882.063,-277.763Z" style="fill:url(#_Linear4);"/><path d="M2201.39,990.698c39.145,270.542 -333.847,548.756 -832.414,620.895c-498.567,72.139 -935.122,-88.94 -974.267,-359.483c222.523,50.665 564.269,68.49 924.618,16.351c360.35,-52.14 683.027,-166.102 882.063,-277.763Z" style="fill:url(#_Linear5);"/></g></g></g></g><defs><linearGradient id="_Linear2" x1="0" y1="0" x2="1" y2="0" gradientUnits="userSpaceOnUse" gradientTransform="matrix(-1182.29,-495.294,265.169,-632.972,1182.29,1766.45)"><stop offset="0" style="stop-color:#93c2db;stop-opacity:1"/><stop offset="1" style="stop-color:#ff8ae2;stop-opacity:1"/></linearGradient><linearGradient id="_Linear3" x1="0" y1="0" x2="1" y2="0" gradientUnits="userSpaceOnUse" gradientTransform="matrix(1182.29,-495.294,265.169,632.972,1182.29,1766.45)"><stop offset="0" style="stop-color:#93c2db;stop-opacity:1"/><stop offset="1" style="stop-color:#9c4668;stop-opacity:1"/></linearGradient><linearGradient id="_Linear4" x1="0" y1="0" x2="1" y2="0" gradientUnits="userSpaceOnUse" gradientTransform="matrix(-1021.92,-775.754,415.321,-547.11,1182.29,1766.45)"><stop offset="0" style="stop-color:#93c2db;stop-opacity:1"/><stop offset="1" style="stop-color:#9c4668;stop-opacity:1"/></linearGradient><linearGradient id="_Linear5" x1="0" y1="0" x2="1" y2="0" gradientUnits="userSpaceOnUse" gradientTransform="matrix(1223.96,247.647,132.584,-655.28,394.707,1271.16)"><stop offset="0" style="stop-color:#ff8ae2;stop-opacity:1"/><stop offset="1" style="stop-color:#93c2db;stop-opacity:1"/></linearGradient></defs></svg>